<svg xmlns="http://www.w3.org/2000/svg" xmlns:xlink="http://www.w3.org/1999/xlink" width="84" zoomAndPan="magnify" viewBox="0 0 63 62.999997" height="84" preserveAspectRatio="xMidYMid meet" version="1.0"><defs><clipPath id="703d02ccd1"><path d="M 1.382812 10.644531 L 61.382812 10.644531 L 61.382812 52.644531 L 1.382812 52.644531 Z M 1.382812 10.644531 " clip-rule="nonzero"/></clipPath><clipPath id="4287b90ef0"><path d="M 5 0.644531 L 12 0.644531 L 12 7 L 5 7 Z M 5 0.644531 " clip-rule="nonzero"/></clipPath><clipPath id="f7a126ff71"><path d="M 0.617188 10 L 6 10 L 6 17 L 0.617188 17 Z M 0.617188 10 " clip-rule="nonzero"/></clipPath><clipPath id="c77681d60b"><path d="M 49 36 L 56 36 L 56 42.558594 L 49 42.558594 Z M 49 36 " clip-rule="nonzero"/></clipPath><clipPath id="1b618b6725"><path d="M 55 26 L 60.382812 26 L 60.382812 33 L 55 33 Z M 55 26 " clip-rule="nonzero"/></clipPath><clipPath id="a089dcca91"><rect x="0" width="61" y="0" height="43"/></clipPath></defs><g clip-path="url(#703d02ccd1)"><g transform="matrix(1, 0, 0, 1, 1, 10)"><g clip-path="url(#a089dcca91)"><g clip-path="url(#4287b90ef0)"><path fill="#a6a6a6" d="M 8.613281 0.65625 C 7.859375 0.65625 7.175781 0.960938 6.691406 1.460938 C 6.195312 1.941406 5.890625 2.625 5.890625 3.367188 C 5.890625 4.121094 6.195312 4.804688 6.691406 5.289062 C 7.175781 5.789062 7.859375 6.089844 8.613281 6.089844 C 9.355469 6.089844 10.039062 5.789062 10.535156 5.289062 C 11.019531 4.804688 11.324219 4.121094 11.324219 3.367188 C 11.324219 2.625 11.019531 1.941406 10.535156 1.460938 C 10.039062 0.960938 9.355469 0.65625 8.613281 0.65625 Z M 7.34375 2.09375 C 7.660156 1.777344 8.117188 1.582031 8.613281 1.582031 C 9.113281 1.582031 9.554688 1.777344 9.886719 2.09375 C 10.203125 2.425781 10.414062 2.882812 10.414062 3.367188 C 10.414062 3.867188 10.203125 4.320312 9.886719 4.636719 C 9.554688 4.96875 9.113281 5.167969 8.613281 5.167969 C 8.117188 5.167969 7.660156 4.96875 7.34375 4.636719 C 7.011719 4.320312 6.8125 3.867188 6.8125 3.367188 C 6.8125 2.882812 7.011719 2.425781 7.34375 2.09375 Z M 7.34375 2.09375 " fill-opacity="1" fill-rule="nonzero"/></g><path fill="#a6a6a6" d="M 40.835938 12.371094 L 33.90625 2.335938 L 33.328125 2.320312 C 23.78125 2.246094 16.210938 2.199219 10.339844 2.183594 L 10.339844 4.441406 C 16.078125 4.457031 23.445312 4.5 32.722656 4.578125 L 39.867188 14.929688 Z M 40.835938 12.371094 " fill-opacity="1" fill-rule="nonzero"/><path fill="#a6a6a6" d="M 15.0625 5.136719 C 14.320312 5.136719 13.640625 5.4375 13.15625 5.9375 C 12.65625 6.421875 12.351562 7.105469 12.351562 7.859375 C 12.351562 8.601562 12.65625 9.285156 13.15625 9.769531 C 13.640625 10.265625 14.320312 10.570312 15.0625 10.570312 C 15.820312 10.570312 16.5 10.265625 16.984375 9.769531 C 17.484375 9.285156 17.785156 8.601562 17.785156 7.859375 C 17.785156 7.105469 17.484375 6.421875 16.984375 5.9375 C 16.5 5.4375 15.820312 5.136719 15.0625 5.136719 Z M 13.789062 6.589844 C 14.125 6.257812 14.578125 6.058594 15.0625 6.058594 C 15.5625 6.058594 16.015625 6.257812 16.332031 6.574219 C 16.667969 6.90625 16.863281 7.363281 16.863281 7.859375 C 16.863281 8.34375 16.667969 8.800781 16.332031 9.132812 C 16.015625 9.449219 15.5625 9.648438 15.0625 9.648438 C 14.578125 9.648438 14.125 9.449219 13.789062 9.132812 C 13.472656 8.800781 13.277344 8.34375 13.277344 7.859375 C 13.277344 7.363281 13.472656 6.90625 13.789062 6.589844 Z M 13.789062 6.589844 " fill-opacity="1" fill-rule="nonzero"/><path fill="#a6a6a6" d="M 38.730469 17.894531 L 31.316406 7.148438 L 30.726562 7.132812 C 25.730469 7.105469 21.28125 7.058594 17.332031 7.042969 L 17.332031 9.296875 C 21.132812 9.3125 25.367188 9.34375 30.121094 9.390625 L 37.761719 20.453125 Z M 38.730469 17.894531 " fill-opacity="1" fill-rule="nonzero"/><g clip-path="url(#f7a126ff71)"><path fill="#a6a6a6" d="M 3.089844 10.617188 C 2.347656 10.617188 1.667969 10.917969 1.183594 11.402344 C 0.683594 11.902344 0.382812 12.566406 0.382812 13.324219 C 0.382812 14.066406 0.683594 14.746094 1.183594 15.246094 C 1.667969 15.730469 2.347656 16.035156 3.089844 16.035156 C 3.847656 16.035156 4.527344 15.730469 5.011719 15.246094 C 5.511719 14.746094 5.816406 14.066406 5.816406 13.324219 C 5.816406 12.566406 5.511719 11.902344 5.011719 11.402344 C 4.527344 10.917969 3.847656 10.617188 3.089844 10.617188 Z M 1.820312 12.054688 C 2.152344 11.71875 2.605469 11.523438 3.089844 11.523438 C 3.589844 11.523438 4.042969 11.71875 4.378906 12.054688 C 4.695312 12.371094 4.890625 12.824219 4.890625 13.324219 C 4.890625 13.824219 4.695312 14.277344 4.378906 14.59375 C 4.042969 14.914062 3.589844 15.125 3.089844 15.125 C 2.605469 15.125 2.152344 14.914062 1.820312 14.59375 C 1.5 14.277344 1.304688 13.824219 1.304688 13.324219 C 1.304688 12.824219 1.5 12.371094 1.820312 12.054688 Z M 1.820312 12.054688 " fill-opacity="1" fill-rule="nonzero"/></g><path fill="#a6a6a6" d="M 36.433594 23.933594 L 28.394531 12.28125 L 27.804688 12.28125 C 18.269531 12.203125 10.703125 12.160156 4.832031 12.128906 L 4.832031 14.382812 C 10.566406 14.414062 17.921875 14.445312 27.199219 14.519531 L 35.464844 26.507812 Z M 36.433594 23.933594 " fill-opacity="1" fill-rule="nonzero"/><g clip-path="url(#c77681d60b)"><path fill="#1d4ed8" d="M 52.382812 42.335938 C 53.140625 42.335938 53.820312 42.035156 54.304688 41.535156 C 54.804688 41.050781 55.109375 40.371094 55.109375 39.613281 C 55.109375 38.871094 54.804688 38.191406 54.304688 37.707031 C 53.820312 37.207031 53.140625 36.902344 52.382812 36.902344 C 51.640625 36.902344 50.960938 37.207031 50.476562 37.707031 L 50.460938 37.707031 C 49.976562 38.191406 49.675781 38.871094 49.675781 39.613281 C 49.675781 40.371094 49.976562 41.050781 50.460938 41.535156 C 50.960938 42.035156 51.640625 42.335938 52.382812 42.335938 Z M 53.65625 40.882812 C 53.335938 41.214844 52.882812 41.414062 52.382812 41.414062 C 51.882812 41.414062 51.445312 41.214844 51.113281 40.898438 C 50.792969 40.566406 50.597656 40.113281 50.597656 39.613281 C 50.597656 39.128906 50.792969 38.675781 51.113281 38.339844 C 51.445312 38.023438 51.882812 37.828125 52.382812 37.828125 C 52.882812 37.828125 53.335938 38.023438 53.65625 38.339844 C 53.988281 38.675781 54.183594 39.128906 54.183594 39.613281 C 54.183594 40.113281 53.988281 40.566406 53.65625 40.882812 Z M 53.65625 40.882812 " fill-opacity="1" fill-rule="nonzero"/></g><path fill="#1d4ed8" d="M 20.164062 30.621094 L 27.09375 40.65625 L 27.667969 40.671875 C 37.21875 40.746094 44.785156 40.792969 50.65625 40.808594 L 50.65625 38.554688 C 44.921875 38.539062 37.550781 38.492188 28.273438 38.417969 L 21.144531 28.066406 Z M 20.164062 30.621094 " fill-opacity="1" fill-rule="nonzero"/><path fill="#1d4ed8" d="M 45.9375 37.855469 C 46.675781 37.855469 47.359375 37.554688 47.859375 37.054688 C 48.34375 36.570312 48.644531 35.890625 48.644531 35.132812 C 48.644531 34.390625 48.34375 33.710938 47.859375 33.226562 C 47.359375 32.726562 46.675781 32.421875 45.9375 32.421875 C 45.179688 32.421875 44.5 32.726562 44.015625 33.210938 L 44.015625 33.226562 C 43.515625 33.710938 43.210938 34.390625 43.210938 35.132812 C 43.210938 35.890625 43.515625 36.570312 44.015625 37.054688 C 44.5 37.554688 45.179688 37.855469 45.9375 37.855469 Z M 47.207031 36.402344 C 46.875 36.738281 46.421875 36.933594 45.9375 36.933594 C 45.4375 36.933594 44.984375 36.738281 44.664062 36.402344 C 44.332031 36.085938 44.136719 35.632812 44.136719 35.132812 C 44.136719 34.632812 44.332031 34.195312 44.664062 33.863281 C 44.984375 33.542969 45.4375 33.347656 45.9375 33.347656 C 46.421875 33.347656 46.875 33.542969 47.207031 33.863281 C 47.523438 34.195312 47.722656 34.632812 47.722656 35.132812 C 47.722656 35.632812 47.523438 36.085938 47.207031 36.402344 Z M 47.207031 36.402344 " fill-opacity="1" fill-rule="nonzero"/><path fill="#1d4ed8" d="M 22.265625 25.097656 L 29.683594 35.84375 L 30.273438 35.859375 C 35.265625 35.890625 39.714844 35.917969 43.664062 35.949219 L 43.664062 33.695312 C 39.867188 33.679688 35.628906 33.648438 30.878906 33.605469 L 23.234375 22.542969 Z M 22.265625 25.097656 " fill-opacity="1" fill-rule="nonzero"/><g clip-path="url(#1b618b6725)"><path fill="#1d4ed8" d="M 57.90625 32.378906 C 58.648438 32.378906 59.328125 32.074219 59.8125 31.589844 C 60.3125 31.09375 60.617188 30.410156 60.617188 29.667969 C 60.617188 28.914062 60.3125 28.246094 59.8125 27.746094 C 59.328125 27.261719 58.648438 26.960938 57.90625 26.960938 C 57.152344 26.960938 56.46875 27.261719 55.984375 27.746094 C 55.484375 28.246094 55.183594 28.914062 55.183594 29.667969 C 55.183594 30.410156 55.484375 31.09375 55.984375 31.589844 C 56.46875 32.074219 57.152344 32.378906 57.90625 32.378906 Z M 59.179688 30.941406 C 58.84375 31.257812 58.390625 31.46875 57.90625 31.46875 C 57.40625 31.46875 56.953125 31.257812 56.636719 30.941406 C 56.304688 30.609375 56.105469 30.167969 56.105469 29.667969 C 56.105469 29.167969 56.304688 28.714844 56.636719 28.398438 C 56.953125 28.066406 57.40625 27.867188 57.90625 27.867188 C 58.390625 27.867188 58.84375 28.066406 59.179688 28.398438 C 59.496094 28.714844 59.691406 29.167969 59.691406 29.667969 C 59.691406 30.167969 59.496094 30.609375 59.179688 30.941406 Z M 59.179688 30.941406 " fill-opacity="1" fill-rule="nonzero"/></g><path fill="#1d4ed8" d="M 24.566406 19.046875 L 32.601562 30.714844 L 33.191406 30.714844 C 42.726562 30.789062 50.292969 30.835938 56.183594 30.863281 L 56.183594 28.609375 C 50.429688 28.578125 43.074219 28.535156 33.796875 28.457031 L 25.535156 16.488281 Z M 24.566406 19.046875 " fill-opacity="1" fill-rule="nonzero"/></g></g></g></svg>